<svg width="31" height="31" viewBox="0 0 31 31" fill="none" xmlns="http://www.w3.org/2000/svg">
<g filter="url(#filter0_d_145_3)">
<path d="M17.9381 5C18.9149 5.19057 19.8125 5.66826 20.5162 6.37194C21.2199 7.07561 21.6976 7.97326 21.8881 8.95M17.9381 1C19.9674 1.22544 21.8597 2.13417 23.3044 3.57701C24.749 5.01984 25.6601 6.91101 25.8881 8.94M24.8881 16.92V19.92C24.8892 20.1985 24.8322 20.4742 24.7206 20.7293C24.6091 20.9845 24.4454 21.2136 24.2402 21.4019C24.035 21.5901 23.7927 21.7335 23.5289 21.8227C23.265 21.9119 22.9855 21.9451 22.7081 21.92C19.631 21.5856 16.6751 20.5341 14.0781 18.85C11.6619 17.3147 9.61345 15.2662 8.07812 12.85C6.38809 10.2412 5.33636 7.27099 5.00812 4.18C4.98313 3.90347 5.01599 3.62476 5.10462 3.36162C5.19324 3.09849 5.33569 2.85669 5.52288 2.65162C5.71008 2.44655 5.93792 2.28271 6.19191 2.17052C6.44589 2.05833 6.72046 2.00026 6.99812 2H9.99812C10.4834 1.99522 10.9539 2.16708 11.3219 2.48353C11.6898 2.79999 11.9302 3.23945 11.9981 3.72C12.1247 4.68007 12.3596 5.62273 12.6981 6.53C12.8327 6.88792 12.8618 7.27691 12.782 7.65088C12.7023 8.02485 12.517 8.36811 12.2481 8.64L10.9781 9.91C12.4017 12.4135 14.4746 14.4864 16.9781 15.91L18.2481 14.64C18.52 14.3711 18.8633 14.1858 19.2372 14.1061C19.6112 14.0263 20.0002 14.0555 20.3581 14.19C21.2654 14.5286 22.2081 14.7634 23.1681 14.89C23.6539 14.9585 24.0975 15.2032 24.4146 15.5775C24.7318 15.9518 24.9003 16.4296 24.8881 16.92Z" stroke="#331B3B" stroke-width="2" stroke-linecap="round" stroke-linejoin="round" shape-rendering="crispEdges"/>
</g>
<defs>
<filter id="filter0_d_145_3" x="0" y="-6.10352e-05" width="30.8882" height="30.9282" filterUnits="userSpaceOnUse" color-interpolation-filters="sRGB">
<feFlood flood-opacity="0" result="BackgroundImageFix"/>
<feColorMatrix in="SourceAlpha" type="matrix" values="0 0 0 0 0 0 0 0 0 0 0 0 0 0 0 0 0 0 127 0" result="hardAlpha"/>
<feOffset dy="4"/>
<feGaussianBlur stdDeviation="2"/>
<feComposite in2="hardAlpha" operator="out"/>
<feColorMatrix type="matrix" values="0 0 0 0 0 0 0 0 0 0 0 0 0 0 0 0 0 0 0.25 0"/>
<feBlend mode="normal" in2="BackgroundImageFix" result="effect1_dropShadow_145_3"/>
<feBlend mode="normal" in="SourceGraphic" in2="effect1_dropShadow_145_3" result="shape"/>
</filter>
</defs>
</svg>
