<svg width="57" height="65" viewBox="0 0 57 65" fill="none" xmlns="http://www.w3.org/2000/svg">
<g filter="url(#filter0_d_148_9)">
<path d="M44.637 42.9612C42.0099 47.936 37.4763 51.8966 32.4779 53.8666C27.4772 55.8374 22.134 55.7749 17.8077 52.9323C13.4815 50.0897 10.8422 44.9071 9.96319 39.0728C9.0846 33.2413 9.99227 26.8982 12.6194 21.9234C15.2465 16.9486 19.78 12.988 24.7785 11.0181C29.7792 9.04721 35.1224 9.10967 39.4486 11.9523C43.7748 14.7949 46.4142 19.9775 47.2932 25.8118C48.1718 31.6433 47.2641 37.9864 44.637 42.9612Z" stroke="white" stroke-width="2" shape-rendering="crispEdges"/>
</g>
<path d="M37.2524 22L27.391 33" stroke="white" stroke-width="2" stroke-linecap="round" stroke-linejoin="round"/>
<path d="M39.0453 20L30.8873 47L26.2255 34.85L15.7366 29.45L39.0453 20Z" stroke="white" stroke-width="2" stroke-linecap="round" stroke-linejoin="round"/>
<defs>
<filter id="filter0_d_148_9" x="4.68079" y="8.62" width="47.8948" height="55.6447" filterUnits="userSpaceOnUse" color-interpolation-filters="sRGB">
<feFlood flood-opacity="0" result="BackgroundImageFix"/>
<feColorMatrix in="SourceAlpha" type="matrix" values="0 0 0 0 0 0 0 0 0 0 0 0 0 0 0 0 0 0 127 0" result="hardAlpha"/>
<feOffset dy="4"/>
<feGaussianBlur stdDeviation="2"/>
<feComposite in2="hardAlpha" operator="out"/>
<feColorMatrix type="matrix" values="0 0 0 0 0 0 0 0 0 0 0 0 0 0 0 0 0 0 0.25 0"/>
<feBlend mode="normal" in2="BackgroundImageFix" result="effect1_dropShadow_148_9"/>
<feBlend mode="normal" in="SourceGraphic" in2="effect1_dropShadow_148_9" result="shape"/>
</filter>
</defs>
</svg>
