<svg width="63" height="65" viewBox="0 0 63 65" fill="none" xmlns="http://www.w3.org/2000/svg">
<path d="M49.3078 43.0028C46.3817 47.9702 41.3282 51.9318 35.7454 53.9043C30.164 55.8763 24.1688 55.8248 19.2969 52.955C14.425 50.0852 11.4736 44.8665 10.4925 39.0289C9.51118 33.1897 10.5261 26.8493 13.4522 21.8818C16.3784 16.9144 21.4318 12.9529 27.0146 10.9804C32.596 9.00835 38.5912 9.05982 43.4631 11.9296C48.3351 14.7995 51.2865 20.0181 52.2676 25.8558C53.2489 31.6949 52.2339 38.0353 49.3078 43.0028Z" stroke="#331B3B" stroke-opacity="0.64" stroke-width="2"/>
<path d="M46 31.75C46.0051 33.7298 45.5426 35.6828 44.65 37.45C43.5916 39.5676 41.9646 41.3488 39.9511 42.5939C37.9377 43.8391 35.6173 44.4991 33.25 44.5C31.2702 44.5052 29.3172 44.0426 27.55 43.15L19 46L21.85 37.45C20.9574 35.6828 20.4948 33.7298 20.5 31.75C20.5009 29.3827 21.1609 27.0623 22.4061 25.0489C23.6512 23.0354 25.4324 21.4084 27.55 20.35C29.3172 19.4574 31.2702 18.9949 33.25 19H34C37.1265 19.1725 40.0795 20.4922 42.2937 22.7063C44.5078 24.9205 45.8275 27.8735 46 31V31.75Z" stroke="#331B3B" stroke-width="2" stroke-linecap="round" stroke-linejoin="round"/>
<path d="M39.8896 35.6806V37.6271C39.8903 37.8078 39.8534 37.9866 39.7811 38.1522C39.7087 38.3178 39.6027 38.4664 39.4697 38.5886C39.3367 38.7107 39.1796 38.8037 39.0087 38.8616C38.8377 38.9195 38.6565 38.941 38.4767 38.9247C36.4824 38.7078 34.5667 38.0256 32.8836 36.9328C31.3176 35.9367 29.99 34.6075 28.9949 33.0399C27.8996 31.3472 27.218 29.42 27.0053 27.4145C26.9891 27.2351 27.0104 27.0543 27.0678 26.8835C27.1252 26.7128 27.2176 26.5559 27.3389 26.4229C27.4602 26.2898 27.6079 26.1835 27.7725 26.1107C27.9371 26.0379 28.115 26.0002 28.295 26.0001H30.2393C30.5538 25.997 30.8588 26.1085 31.0972 26.3138C31.3357 26.5191 31.4915 26.8043 31.5355 27.116C31.6176 27.739 31.7698 28.3506 31.9892 28.9393C32.0764 29.1715 32.0953 29.4239 32.0436 29.6665C31.9919 29.9092 31.8718 30.1319 31.6975 30.3083L30.8745 31.1323C31.7971 32.7567 33.1405 34.1016 34.7631 35.0253L35.5862 34.2013C35.7624 34.0268 35.9849 33.9066 36.2272 33.8548C36.4696 33.8031 36.7217 33.822 36.9537 33.9093C37.5417 34.1289 38.1526 34.2813 38.7749 34.3635C39.0897 34.4079 39.3772 34.5667 39.5827 34.8095C39.7883 35.0524 39.8975 35.3624 39.8896 35.6806Z" stroke="#331B3B" stroke-width="2" stroke-linecap="round" stroke-linejoin="round"/>
</svg>
